<?xml version="1.0" standalone="no"?>
<!DOCTYPE svg PUBLIC "-//W3C//DTD SVG 20010904//EN"
 "http://www.w3.org/TR/2001/REC-SVG-20010904/DTD/svg10.dtd">
<svg version="1.0" xmlns="http://www.w3.org/2000/svg"
 width="16.000000pt" height="16.000000pt" viewBox="0 0 16.000000 16.000000"
 preserveAspectRatio="xMidYMid meet">
<metadata>
Created by potrace 1.11, written by Peter Selinger 2001-2013
</metadata>
<g transform="translate(0.000000,16.000000) scale(0.003463,-0.003463)"
fill="#000000" stroke="none">
<path d="M2467 3009 c-88 -12 -209 -52 -269 -90 -132 -85 -198 -221 -198 -407
1 -320 203 -486 542 -443 56 7 106 15 110 17 5 3 8 106 8 230 l0 224 -98 0
-97 0 4 -155 c4 -176 9 -168 -85 -140 -59 17 -109 63 -138 125 -18 38 -21 64
-21 170 0 149 16 192 88 234 52 31 177 51 256 42 l54 -7 -7 47 c-3 26 -6 73
-6 105 l0 59 -37 -1 c-21 -1 -69 -5 -106 -10z"/>
<path d="M1327 2832 c-26 -98 -77 -302 -113 -453 -35 -151 -67 -282 -70 -291
-5 -16 5 -18 104 -18 l110 0 23 120 23 120 117 0 c103 0 118 -2 123 -17 2 -10
12 -56 21 -103 26 -134 11 -122 133 -114 59 4 108 8 109 9 2 1 -47 199 -108
441 -61 241 -113 449 -116 462 -5 22 -8 22 -157 22 l-152 0 -47 -178z m243
-177 c17 -82 33 -158 36 -167 5 -16 -3 -18 -80 -18 -47 0 -86 2 -86 5 0 11 71
341 76 355 10 24 20 -9 54 -175z"/>
<path d="M2880 2540 l0 -470 295 0 295 0 0 29 c0 15 3 56 6 90 l7 61 -192 0
-191 0 0 105 0 105 155 0 155 0 0 80 0 80 -155 0 -155 0 0 105 0 105 185 0
185 0 0 90 0 90 -295 0 -295 0 0 -470z"/>
</g>
</svg>
